<?xml version="1.0" encoding="UTF-8"?><svg id="Layer_2" xmlns="http://www.w3.org/2000/svg" viewBox="0 0 414.31 77.82"><defs><style>.cls-1{fill:#fff;}</style></defs><g id="Body"><g><g><path class="cls-1" d="M123.1,7.79h-10.28l-10.1,30.12h8.45l1.74-5.71h10.15l1.74,5.71h8.45l-10.15-30.12Zm-8.29,18.06l3.14-10.35,3.1,10.35h-6.24Z"/><path class="cls-1" d="M155.44,7.79h-13.58v30.12h8.11v-8.88h5.08c7.87,0,11.54-2.76,11.54-8.69v-3.82c0-6.04-3.44-8.73-11.16-8.73Zm-.39,14.67h-5.08v-7.97h5.08c2.93,0,3.44,.85,3.44,2.65v2.55c0,1.88-.51,2.78-3.44,2.78Z"/><polygon class="cls-1" points="184.96 14.49 184.96 18.99 196.95 18.99 196.95 25.69 184.96 25.69 184.96 31.21 197.96 31.21 197.96 37.91 176.86 37.91 176.86 7.79 197.96 7.79 197.96 14.49 184.96 14.49"/><path class="cls-1" d="M231.91,27.64c2.98-1.33,4.43-3.79,4.43-7.52v-3.6c0-6.04-3.44-8.73-11.16-8.73h-13.82v30.12h8.1v-9.1h3.62l7.1,9.1h9.69l-7.98-10.27Zm-12.43-13.15h5.32c2.93,0,3.44,.85,3.44,2.65v2.33c0,1.88-.51,2.78-3.44,2.78h-5.32v-7.76Z"/><polygon class="cls-1" points="271.48 7.79 271.48 14.49 262.83 14.49 262.83 37.91 254.72 37.91 254.72 14.49 246.07 14.49 246.07 7.79 271.48 7.79"/><path class="cls-1" d="M306.96,7.79V28.95c0,2.2-.91,9.39-12.56,9.39s-12.56-7.19-12.56-9.39V7.79h8.1V28.34c0,1.64,.53,3.3,4.46,3.3s4.45-1.67,4.45-3.3V7.79h8.11Z"/><path class="cls-1" d="M340.42,27.64c2.98-1.33,4.43-3.79,4.43-7.52v-3.6c0-6.04-3.44-8.73-11.16-8.73h-13.82v30.12h8.1v-9.1h3.62l7.1,9.1h9.69l-7.98-10.27Zm-7.11-5.4h-5.32v-7.76h5.32c2.93,0,3.44,.85,3.44,2.65v2.33c0,1.88-.51,2.78-3.44,2.78Z"/><polygon class="cls-1" points="366.8 14.49 366.8 18.99 378.78 18.99 378.78 25.69 366.8 25.69 366.8 31.21 379.8 31.21 379.8 37.91 358.69 37.91 358.69 7.79 379.8 7.79 379.8 14.49 366.8 14.49"/><path class="cls-1" d="M414.31,29.26c0,5.75-2,9.08-12.22,9.08-3.71,0-7.65-.72-10.56-1.92l-.34-.14,1.4-5.88,.43,.12c3.35,.95,6.26,1.39,9.16,1.39,3.7,0,4.02-.66,4.02-2.69,0-2.37,0-2.56-5.07-3.58-7.9-1.56-9.29-3.01-9.29-9.69s2.92-8.6,11.55-8.6c2.23,0,5.75,.17,9.84,.97l.39,.08-.83,6.37-.43-.07c-3.46-.54-5.9-.83-8.88-.83-3.26,0-3.53,.55-3.53,2.25q0,2.48,4.88,3.53c8.66,1.88,9.47,3.39,9.47,9.6Z"/></g><g><path class="cls-1" d="M107.97,50.22h-5.04v13.63h5.04c3.85,0,4.65-2.17,4.65-4v-5.63c0-1.82-.8-3.99-4.65-3.99Zm2.45,9.51c0,1.34-.42,2.17-2.51,2.17h-2.77v-9.73h2.77c2.09,0,2.51,.83,2.51,2.17v5.39Z"/><polygon class="cls-1" points="125.96 61.89 125.96 63.84 117.39 63.84 117.39 50.22 125.94 50.22 125.94 52.16 119.59 52.16 119.59 55.88 125.49 55.88 125.49 57.83 119.59 57.83 119.59 61.89 125.96 61.89"/><path class="cls-1" d="M139.18,60.22c0,2.42-.77,3.82-4.71,3.82-1.45,0-3.05-.27-4.18-.71l-.17-.07,.38-1.79,.22,.06c1.24,.37,2.56,.57,3.8,.57,2.11,0,2.47-.46,2.47-1.85,0-1.7,0-1.77-2.7-2.35-3.32-.71-3.9-1.35-3.9-4.27,0-2.6,1.3-3.62,4.63-3.62,1.26,0,2.7,.17,3.79,.44l.18,.05-.19,1.87-.23-.05c-1.09-.23-2.37-.37-3.5-.37-2.26,0-2.46,.46-2.46,1.75q0,1.73,2.57,2.35c3.73,.88,4.02,1.44,4.02,4.17Z"/><rect class="cls-1" x="144.05" y="50.22" width="2.21" height="13.63"/><path class="cls-1" d="M160.64,57.35v6.07l-.16,.05c-1.32,.37-2.94,.58-4.43,.58-3.33,0-4.82-1.27-4.82-4.1v-5.82c0-2.85,1.56-4.11,5.04-4.11,1.24,0,2.62,.15,3.89,.42l.19,.04-.26,1.88-.21-.03c-1.35-.22-2.59-.34-3.68-.34-2.35,0-2.76,.72-2.76,2.23v5.63c0,1.54,.39,2.23,2.67,2.23,.56,0,1.42-.04,2.39-.21v-4.52h2.15Z"/><polygon class="cls-1" points="176.2 50.22 176.2 63.84 173.41 63.84 167.73 53.23 167.73 63.84 165.61 63.84 165.61 50.22 168.39 50.22 174.07 60.88 174.07 50.22 176.2 50.22"/><polygon class="cls-1" points="194.66 50.02 189.4 66.17 187.32 66.17 192.55 50.02 194.66 50.02"/><path class="cls-1" d="M210.99,50.21h-5.21v13.63h2.21v-4.72h3c2.84,0,4.22-1.14,4.22-3.49v-1.96c0-2.33-1.38-3.47-4.22-3.47Zm-3,1.95h2.94c1.76,0,2.07,.49,2.07,1.54v1.94c0,1.04-.31,1.54-2.07,1.54h-2.94v-5.01Z"/><polygon class="cls-1" points="229.52 50.21 229.52 63.84 227.32 63.84 227.32 57.86 221.62 57.86 221.62 63.84 219.41 63.84 219.41 50.21 221.62 50.21 221.62 55.9 227.32 55.9 227.32 50.21 229.52 50.21"/><path class="cls-1" d="M239.61,50.01c-4.71,0-5.21,2.95-5.21,4.22v5.59c0,1.27,.5,4.22,5.21,4.22s5.21-2.95,5.21-4.22v-5.59c0-1.27-.51-4.22-5.21-4.22Zm3,4.26v5.51c0,1.54-1.01,2.33-3,2.33s-3.01-.78-3.01-2.33v-5.51c0-1.54,1.01-2.33,3.01-2.33s3,.78,3,2.33Z"/><polygon class="cls-1" points="258.02 50.21 258.02 52.16 253.89 52.16 253.89 63.84 251.68 63.84 251.68 52.16 247.55 52.16 247.55 50.21 258.02 50.21"/><path class="cls-1" d="M265.96,50.01c-4.7,0-5.21,2.95-5.21,4.22v5.59c0,1.27,.51,4.22,5.21,4.22s5.21-2.95,5.21-4.22v-5.59c0-1.27-.5-4.22-5.21-4.22Zm3.01,9.77c0,1.54-1.01,2.33-3.01,2.33s-3-.78-3-2.33v-5.51c0-1.54,1.01-2.33,3-2.33s3.01,.78,3.01,2.33v5.51Z"/><polygon class="cls-1" points="289.32 50.01 284.06 66.16 281.98 66.16 287.22 50.01 289.32 50.01"/><polygon class="cls-1" points="314.11 63.84 311.96 63.84 311.71 53.98 308.52 62.14 305.82 62.14 302.62 53.98 302.37 63.84 300.22 63.84 300.72 50.21 303.33 50.21 307.17 60.06 311.01 50.21 313.61 50.21 314.11 63.84"/><path class="cls-1" d="M323.98,50.01c-4.7,0-5.21,2.95-5.21,4.22v5.59c0,1.27,.51,4.22,5.21,4.22s5.21-2.95,5.21-4.22v-5.59c0-1.27-.51-4.22-5.21-4.22Zm3.01,9.77c0,1.54-1.02,2.33-3.01,2.33s-3.01-.78-3.01-2.33v-5.51c0-1.54,1.01-2.33,3.01-2.33s3.01,.78,3.01,2.33v5.51Z"/><polygon class="cls-1" points="342.8 50.21 342.8 52.16 338.67 52.16 338.67 63.84 336.46 63.84 336.46 52.16 332.34 52.16 332.34 50.21 342.8 50.21"/><rect class="cls-1" x="346.74" y="50.21" width="2.21" height="13.63"/><path class="cls-1" d="M359.13,50.01c-4.71,0-5.21,2.95-5.21,4.22v5.59c0,1.27,.5,4.22,5.21,4.22s5.21-2.95,5.21-4.22v-5.59c0-1.27-.5-4.22-5.21-4.22Zm3,4.26v5.51c0,1.54-1.01,2.33-3,2.33s-3.01-.78-3.01-2.33v-5.51c0-1.54,1.01-2.33,3.01-2.33s3,.78,3,2.33Z"/><polygon class="cls-1" points="379.8 50.22 379.8 63.84 377.01 63.84 371.33 53.23 371.33 63.84 369.2 63.84 369.2 50.22 372 50.22 377.67 60.88 377.67 50.22 379.8 50.22"/></g><g><path class="cls-1" d="M63.69,0l-19.15,33.67h38.28L63.69,0Z"/><path class="cls-1" d="M20.44,1.05l19.13,33.62L58.72,1.02l-38.28,.03Z"/><path class="cls-1" d="M48.81,37.48l19.13,33.62,19.15-33.62H48.81Z"/><path class="cls-1" d="M4.36,44.2l19.13,33.62,19.15-33.62H4.36Z"/><path class="cls-1" d="M47.63,43.11l-19.15,33.66h14.15s5-8.8,5-8.8l5,8.79h14.14s-19.14-33.65-19.14-33.65Z"/><path class="cls-1" d="M19.26,6.71L0,40.38H38.4L19.26,6.71Z"/></g></g></g></svg>