<?xml version="1.0" encoding="utf-8"?>
<!-- Generator: Adobe Illustrator 27.0.0, SVG Export Plug-In . SVG Version: 6.00 Build 0)  -->
<svg version="1.1" id="Layer_1" xmlns="http://www.w3.org/2000/svg" xmlns:xlink="http://www.w3.org/1999/xlink" x="0px" y="0px"
	 viewBox="0 0 54 49" style="enable-background:new 0 0 54 49;" xml:space="preserve">
<style type="text/css">
	.st0{fill:#FFFFFF;}
</style>
<g>
	<path class="st0" d="M0.3,48.7V25.6c-0.1-3.3,0.4-6.4,1.4-9.3c1.1-2.9,2.5-5.5,4.4-7.7c1.9-2.2,4.2-4,6.9-5.5
		c2.7-1.5,5.6-2.4,8.7-2.8v9.9c-3.8,1.3-6.4,3.2-7.8,5.8c-1.4,2.6-2.1,5.7-2.1,9.4h9.9v23.2H0.3z M32.4,48.7V25.6
		c-0.1-3.3,0.4-6.4,1.4-9.3c1.1-2.9,2.5-5.5,4.4-7.7c1.9-2.2,4.2-4,6.9-5.5c2.7-1.5,5.6-2.4,8.7-2.8v9.9c-3.8,1.3-6.4,3.2-7.8,5.8
		c-1.4,2.6-2.1,5.7-2.1,9.4h9.9v23.2H32.4z"/>
</g>
</svg>
