<?xml version="1.0" encoding="utf-8"?>
<!-- Generator: Adobe Illustrator 27.0.0, SVG Export Plug-In . SVG Version: 6.00 Build 0)  -->
<svg version="1.1" id="Layer_2_00000011032685559900565580000016794288986426096272_"
	 xmlns="http://www.w3.org/2000/svg" xmlns:xlink="http://www.w3.org/1999/xlink" x="0px" y="0px" viewBox="0 0 304.1 57.1"
	 style="enable-background:new 0 0 304.1 57.1;" xml:space="preserve">
<style type="text/css">
	.st0{fill:#BA0C2F;}
	.st1{fill:#201A1A;}
</style>
<g>
	<g>
		<g>
			<path class="st0" d="M90.3,6.2h-7.5l-7.4,22.1h6.2l1.3-4.2h7.4l1.3,4.2h6.2L90.3,6.2z M84.2,19.4l2.3-7.6l2.3,7.6H84.2z"/>
		</g>
		<g>
			<path class="st0" d="M114,6.2h-10v22.1h6v-6.5h3.7c5.8,0,8.5-2,8.5-6.4v-2.8C122.2,8.1,119.7,6.2,114,6.2z M113.8,16.9H110v-5.9
				h3.7c2.1,0,2.5,0.6,2.5,1.9v1.9C116.3,16.3,115.9,16.9,113.8,16.9z"/>
		</g>
		<g>
			<polygon class="st0" points="135.7,11.1 135.7,14.4 144.5,14.4 144.5,19.3 135.7,19.3 135.7,23.3 145.3,23.3 145.3,28.3 
				129.8,28.3 129.8,6.2 145.3,6.2 145.3,11.1 			"/>
		</g>
		<g>
			<path class="st0" d="M170.2,20.7c2.2-1,3.3-2.8,3.3-5.5v-2.6c0-4.4-2.5-6.4-8.2-6.4h-10.1v22.1h5.9v-6.7h2.7l5.2,6.7h7.1
				L170.2,20.7z M161,11.1h3.9c2.1,0,2.5,0.6,2.5,1.9v1.7c0,1.4-0.4,2-2.5,2H161V11.1z"/>
		</g>
		<g>
			<polygon class="st0" points="199.2,6.2 199.2,11.1 192.9,11.1 192.9,28.3 186.9,28.3 186.9,11.1 180.6,11.1 180.6,6.2 			"/>
		</g>
		<g>
			<path class="st0" d="M225.3,6.2v15.5c0,1.6-0.7,6.9-9.2,6.9s-9.2-5.3-9.2-6.9V6.2h5.9v15.1c0,1.2,0.4,2.4,3.3,2.4
				s3.3-1.2,3.3-2.4V6.2H225.3z"/>
		</g>
		<g>
			<path class="st0" d="M249.8,20.7c2.2-1,3.3-2.8,3.3-5.5v-2.6c0-4.4-2.5-6.4-8.2-6.4h-10.1v22.1h5.9v-6.7h2.7l5.2,6.7h7.1
				L249.8,20.7z M244.6,16.8h-3.9v-5.7h3.9c2.1,0,2.5,0.6,2.5,1.9v1.7C247.1,16.1,246.8,16.8,244.6,16.8z"/>
		</g>
		<g>
			<polygon class="st0" points="269.2,11.1 269.2,14.4 278,14.4 278,19.3 269.2,19.3 269.2,23.3 278.7,23.3 278.7,28.3 263.2,28.3 
				263.2,6.2 278.7,6.2 278.7,11.1 			"/>
		</g>
		<g>
			<path class="st0" d="M304.1,21.9c0,4.2-1.5,6.7-9,6.7c-2.7,0-5.6-0.5-7.7-1.4l-0.2-0.1l1-4.3l0.3,0.1c2.5,0.7,4.6,1,6.7,1
				c2.7,0,2.9-0.5,2.9-2c0-1.7,0-1.9-3.7-2.6c-5.8-1.1-6.8-2.2-6.8-7.1c0-4.7,2.1-6.3,8.5-6.3c1.6,0,4.2,0.1,7.2,0.7l0.3,0.1
				l-0.6,4.7l-0.3-0.1c-2.5-0.4-4.3-0.6-6.5-0.6c-2.4,0-2.6,0.4-2.6,1.7c0,1.8,0,1.8,3.6,2.6C303.5,16.2,304.1,17.4,304.1,21.9z"/>
		</g>
	</g>
	<g>
		<g>
			<path class="st1" d="M79.2,37.3h-3.7v10h3.7c2.8,0,3.4-1.6,3.4-2.9v-4.1C82.6,38.9,82,37.3,79.2,37.3z M81,44.3
				c0,1-0.3,1.6-1.8,1.6h-2v-7.1h2c1.5,0,1.8,0.6,1.8,1.6V44.3z"/>
		</g>
		<g>
			<polygon class="st1" points="92.4,45.9 92.4,47.3 86.1,47.3 86.1,37.3 92.4,37.3 92.4,38.7 87.7,38.7 87.7,41.5 92,41.5 92,42.9 
				87.7,42.9 87.7,45.9 			"/>
		</g>
		<g>
			<path class="st1" d="M102.1,44.6c0,1.8-0.6,2.8-3.5,2.8c-1.1,0-2.2-0.2-3.1-0.5l-0.1-0.1l0.3-1.3l0.2,0c0.9,0.3,1.9,0.4,2.8,0.4
				c1.5,0,1.8-0.3,1.8-1.4c0-1.2,0-1.3-2-1.7c-2.4-0.5-2.9-1-2.9-3.1c0-1.9,1-2.7,3.4-2.7c0.9,0,2,0.1,2.8,0.3l0.1,0l-0.1,1.4
				l-0.2,0c-0.8-0.2-1.7-0.3-2.6-0.3c-1.7,0-1.8,0.3-1.8,1.3c0,1.3,0,1.3,1.9,1.7C101.9,42.2,102.1,42.6,102.1,44.6z"/>
		</g>
		<g>
			<rect x="105.7" y="37.3" class="st1" width="1.6" height="10"/>
		</g>
		<g>
			<path class="st1" d="M117.9,42.5V47l-0.1,0c-1,0.3-2.2,0.4-3.3,0.4c-2.4,0-3.5-0.9-3.5-3v-4.3c0-2.1,1.1-3,3.7-3
				c0.9,0,1.9,0.1,2.9,0.3l0.1,0l-0.2,1.4l-0.2,0c-1-0.2-1.9-0.2-2.7-0.2c-1.7,0-2,0.5-2,1.6v4.1c0,1.1,0.3,1.6,2,1.6
				c0.4,0,1,0,1.8-0.2v-3.3H117.9z"/>
		</g>
		<g>
			<polygon class="st1" points="129.3,37.3 129.3,47.3 127.2,47.3 123.1,39.5 123.1,47.3 121.5,47.3 121.5,37.3 123.5,37.3 
				127.7,45.1 127.7,37.3 			"/>
		</g>
		<g>
			<polygon class="st1" points="142.8,37.2 139,49 137.4,49 141.3,37.2 			"/>
		</g>
		<g>
			<path class="st1" d="M154.8,37.3H151v10h1.6v-3.5h2.2c2.1,0,3.1-0.8,3.1-2.6v-1.4C157.9,38.1,156.9,37.3,154.8,37.3z M152.6,38.7
				h2.2c1.3,0,1.5,0.4,1.5,1.1v1.4c0,0.8-0.2,1.1-1.5,1.1h-2.2V38.7z"/>
		</g>
		<g>
			<polygon class="st1" points="168.4,37.3 168.4,47.3 166.8,47.3 166.8,42.9 162.6,42.9 162.6,47.3 161,47.3 161,37.3 162.6,37.3 
				162.6,41.5 166.8,41.5 166.8,37.3 			"/>
		</g>
		<g>
			<path class="st1" d="M175.8,37.1c-3.5,0-3.8,2.2-3.8,3.1v4.1c0,0.9,0.4,3.1,3.8,3.1c3.5,0,3.8-2.2,3.8-3.1v-4.1
				C179.6,39.3,179.3,37.1,175.8,37.1z M178,40.3v4c0,1.1-0.7,1.7-2.2,1.7c-1.5,0-2.2-0.6-2.2-1.7v-4c0-1.1,0.7-1.7,2.2-1.7
				C177.3,38.6,178,39.1,178,40.3z"/>
		</g>
		<g>
			<polygon class="st1" points="189.3,37.3 189.3,38.7 186.3,38.7 186.3,47.3 184.7,47.3 184.7,38.7 181.7,38.7 181.7,37.3 			"/>
		</g>
		<g>
			<path class="st1" d="M195.2,37.1c-3.5,0-3.8,2.2-3.8,3.1v4.1c0,0.9,0.4,3.1,3.8,3.1c3.5,0,3.8-2.2,3.8-3.1v-4.1
				C199,39.3,198.6,37.1,195.2,37.1z M197.4,44.3c0,1.1-0.7,1.7-2.2,1.7c-1.5,0-2.2-0.6-2.2-1.7v-4c0-1.1,0.7-1.7,2.2-1.7
				c1.5,0,2.2,0.6,2.2,1.7V44.3z"/>
		</g>
		<g>
			<polygon class="st1" points="212.3,37.1 208.5,49 206.9,49 210.8,37.1 			"/>
		</g>
		<g>
			<polygon class="st1" points="230.5,47.3 228.9,47.3 228.8,40.1 226.4,46 224.4,46 222.1,40.1 221.9,47.3 220.3,47.3 220.7,37.3 
				222.6,37.3 225.4,44.5 228.2,37.3 230.2,37.3 			"/>
		</g>
		<g>
			<path class="st1" d="M237.8,37.1c-3.5,0-3.8,2.2-3.8,3.1v4.1c0,0.9,0.4,3.1,3.8,3.1c3.5,0,3.8-2.2,3.8-3.1v-4.1
				C241.6,39.3,241.2,37.1,237.8,37.1z M240,44.3c0,1.1-0.7,1.7-2.2,1.7c-1.5,0-2.2-0.6-2.2-1.7v-4c0-1.1,0.7-1.7,2.2-1.7
				c1.5,0,2.2,0.6,2.2,1.7V44.3z"/>
		</g>
		<g>
			<polygon class="st1" points="251.6,37.3 251.6,38.7 248.5,38.7 248.5,47.3 246.9,47.3 246.9,38.7 243.9,38.7 243.9,37.3 			"/>
		</g>
		<g>
			<rect x="254.5" y="37.3" class="st1" width="1.6" height="10"/>
		</g>
		<g>
			<path class="st1" d="M263.6,37.1c-3.5,0-3.8,2.2-3.8,3.1v4.1c0,0.9,0.4,3.1,3.8,3.1c3.5,0,3.8-2.2,3.8-3.1v-4.1
				C267.4,39.3,267,37.1,263.6,37.1z M265.8,40.3v4c0,1.1-0.7,1.7-2.2,1.7c-1.5,0-2.2-0.6-2.2-1.7v-4c0-1.1,0.7-1.7,2.2-1.7
				C265,38.6,265.8,39.1,265.8,40.3z"/>
		</g>
		<g>
			<polygon class="st1" points="278.7,37.3 278.7,47.3 276.7,47.3 272.5,39.5 272.5,47.3 271,47.3 271,37.3 273,37.3 277.2,45.1 
				277.2,37.3 			"/>
		</g>
	</g>
	<g>
		<g>
			<path class="st1" d="M46.7,0.4L32.6,25.1h28.1L46.7,0.4z"/>
		</g>
		<g>
			<path class="st1" d="M14.9,1.2l14,24.7L43,1.2L14.9,1.2z"/>
		</g>
		<g>
			<path class="st1" d="M35.8,27.9l14,24.7l14.1-24.7H35.8z"/>
		</g>
		<g>
			<path class="st1" d="M3.1,32.9l14,24.7l14.1-24.7H3.1z"/>
		</g>
		<g>
			<path class="st0" d="M34.9,32.1L20.8,56.8l10.4,0l3.7-6.5l3.7,6.5l10.4,0L34.9,32.1z"/>
		</g>
		<g>
			<path class="st1" d="M14.1,5.4L-0.1,30.1h28.2L14.1,5.4z"/>
		</g>
	</g>
</g>
</svg>
