<?xml version="1.0" encoding="utf-8"?>
<!-- Generator: Adobe Illustrator 27.0.0, SVG Export Plug-In . SVG Version: 6.00 Build 0)  -->
<svg version="1.1" id="Layer_1" xmlns="http://www.w3.org/2000/svg" xmlns:xlink="http://www.w3.org/1999/xlink" x="0px" y="0px"
	 viewBox="0 0 12.5 25.5" style="enable-background:new 0 0 12.5 25.5;" xml:space="preserve">
<style type="text/css">
	.st0{fill:#AEAEAE;}
	.st1{fill-rule:evenodd;clip-rule:evenodd;fill:#AEAEAE;}
</style>
<path id="_x36_4_1_" class="st0" d="M59.3,7.5c-0.9,0.4-1.8,0.6-2.8,0.8c0,0,0,0,0-0.1c1-0.6,1.8-1.6,2.2-2.7
	c-0.3,0.2-1.7,1-3.1,1.3c-0.9-1-2.2-1.6-3.7-1.6c-3.1,0-5,2.5-5,5c0,0.2,0.1,1,0.1,1c-4.2-0.1-7.9-2.1-10.2-5.2
	c-1.7,3.1,0.1,5.8,1.3,6.7c-0.7,0-1.4-0.2-2-0.4c0.1,2.4,1.9,4.3,4.1,4.8c-0.9,0.3-2,0.1-2.4,0c0.7,2,2.5,3.5,4.7,3.6
	c-3.4,2.5-7,2.2-7,2.2c2.1,1.3,4.6,2,7.3,2c9.8-0.1,14.8-8.7,14.2-14.9C57.9,9.4,58.8,8.6,59.3,7.5z"/>
<g>
	<path class="st1" d="M3.4,5.4v3H0.8v4.4h2.6v12.6h5.2V12.8l3.5,0l0.5-4.4H8.6V5.9c0-0.8,0.5-1.4,1.3-1.4h2.6V0.2H9
		C5.4,0.2,3.4,1.8,3.4,5.4z"/>
</g>
<g>
	<path class="st0" d="M88.2,4.1c0,1.5-1.2,2.7-2.7,2.7c-1.5,0-2.7-1.2-2.7-2.7c0-1.5,1.2-2.7,2.7-2.7C87,1.4,88.2,2.6,88.2,4.1z
		 M87.7,24.2h-4.5v-16h4.5V24.2z"/>
	<path class="st0" d="M94,9.6L94,9.6c1-1.4,2.6-2,4.2-2c4.2,0,5.5,3,5.5,6.8v9.8h-4.5v-8.5c0-1.9,0.1-4.4-2.4-4.4
		c-2.7,0-2.7,3-2.7,5v7.9h-4.5v-16H94V9.6z"/>
</g>
<path class="st0" d="M-24.8,7.2c0-1.2-1-2.2-2.1-2.2H-44c-1.2,0-2.1,1-2.1,2.2v13c0,1.2,1,2.2,2.1,2.2h17.1c1.2,0,2.1-1,2.1-2.2V7.2
	z M-26.9,7.2l-8.6,5.4L-44,7.2H-26.9z M-26.9,20.2H-44V9.4l8.6,5.4l8.6-5.4V20.2z"/>
</svg>
