<?xml version="1.0" encoding="utf-8"?>
<!-- Generator: Adobe Illustrator 27.0.0, SVG Export Plug-In . SVG Version: 6.00 Build 0)  -->
<svg version="1.1" id="Layer_1" xmlns="http://www.w3.org/2000/svg" xmlns:xlink="http://www.w3.org/1999/xlink" x="0px" y="0px"
	 viewBox="0 0 22.5 23.5" style="enable-background:new 0 0 22.5 23.5;" xml:space="preserve">
<style type="text/css">
	.st0{fill:#AEAEAE;}
	.st1{fill-rule:evenodd;clip-rule:evenodd;fill:#AEAEAE;}
</style>
<path id="_x36_4_1_" class="st0" d="M-22.7,6.5c-0.9,0.4-1.8,0.6-2.8,0.8c0,0,0,0,0-0.1c1-0.6,1.8-1.6,2.2-2.7
	c-0.3,0.2-1.7,1-3.1,1.3c-0.9-1-2.2-1.6-3.7-1.6c-3.1,0-5,2.5-5,5c0,0.2,0.1,1,0.1,1c-4.2-0.1-7.9-2.1-10.2-5.2
	c-1.7,3.1,0.1,5.8,1.3,6.7c-0.7,0-1.4-0.2-2-0.4c0.1,2.4,1.9,4.3,4.1,4.8c-0.9,0.3-2,0.1-2.4,0c0.7,2,2.5,3.5,4.7,3.6
	c-3.4,2.5-7,2.2-7,2.2c2.1,1.3,4.6,2,7.3,2c9.8-0.1,14.8-8.7,14.2-14.9C-24.1,8.4-23.2,7.6-22.7,6.5z"/>
<g>
	<path class="st1" d="M-78.6,4.4v3h-2.6v4.4h2.6v12.6h5.2V11.8l3.5,0l0.5-4.4h-3.9V4.9c0-0.8,0.5-1.4,1.3-1.4h2.6v-4.4H-73
		C-76.6-0.8-78.6,0.8-78.6,4.4z"/>
</g>
<g>
	<path class="st0" d="M6.2,3.1c0,1.5-1.2,2.7-2.7,2.7C2,5.8,0.8,4.6,0.8,3.1c0-1.5,1.2-2.7,2.7-2.7C5,0.4,6.2,1.6,6.2,3.1z
		 M5.7,23.2H1.2v-16h4.5V23.2z"/>
	<path class="st0" d="M12,8.6L12,8.6c1-1.4,2.6-2,4.2-2c4.2,0,5.5,3,5.5,6.8v9.8h-4.5v-8.5c0-1.9,0.1-4.4-2.4-4.4
		c-2.7,0-2.7,3-2.7,5v7.9H7.5v-16H12V8.6z"/>
</g>
<path class="st0" d="M-106.8,6.2c0-1.2-1-2.2-2.1-2.2H-126c-1.2,0-2.1,1-2.1,2.2v13c0,1.2,1,2.2,2.1,2.2h17.1c1.2,0,2.1-1,2.1-2.2
	V6.2z M-108.9,6.2l-8.6,5.4l-8.6-5.4H-108.9z M-108.9,19.2H-126V8.4l8.6,5.4l8.6-5.4V19.2z"/>
</svg>
