<?xml version="1.0" encoding="utf-8"?>
<!-- Generator: Adobe Illustrator 27.0.0, SVG Export Plug-In . SVG Version: 6.00 Build 0)  -->
<svg version="1.1" id="Layer_1" xmlns="http://www.w3.org/2000/svg" xmlns:xlink="http://www.w3.org/1999/xlink" x="0px" y="0px"
	 viewBox="0 0 84 41" style="enable-background:new 0 0 84 41;" xml:space="preserve">
<style type="text/css">
	.st0{fill:#FFFFFF;}
</style>
<g>
	<g>
		<path class="st0" d="M29,23.9l-1.6-5.8h0c0.1,1,0.1,1.7,0.1,2.3v3.5h-1.9v-8h2.9l1.7,5.7h0l1.6-5.7h2.9v8h-2v-3.5
			c0-0.2,0-0.4,0-0.6c0-0.2,0-0.8,0.1-1.6h0l-1.6,5.8H29z"/>
		<path class="st0" d="M41.1,23.9h-4.7v-8h4.7v1.7h-2.6v1.3h2.4v1.7h-2.4v1.5h2.6V23.9z"/>
		<path class="st0" d="M50.1,23.9h-2.8l-2.9-5.6h0c0.1,0.9,0.1,1.6,0.1,2v3.6h-1.9v-8h2.8l2.9,5.6h0c-0.1-0.8-0.1-1.5-0.1-1.9V16
			h1.9V23.9z"/>
		<path class="st0" d="M58.6,16v4.8c0,1-0.3,1.9-0.9,2.4c-0.6,0.6-1.4,0.9-2.6,0.9c-1.1,0-1.9-0.3-2.5-0.8s-0.9-1.4-0.9-2.4V16H54
			v4.7c0,0.6,0.1,1,0.3,1.2c0.2,0.3,0.5,0.4,0.9,0.4c0.4,0,0.8-0.1,1-0.4s0.3-0.7,0.3-1.2V16H58.6z"/>
	</g>
	<g>
		<polygon class="st0" points="84,41 0.1,40.6 0.1,35.9 84,36.4 		"/>
	</g>
	<g>
		<g>
			<rect x="64.3" y="18.2" class="st0" width="19.7" height="4.7"/>
		</g>
		<g>
			<rect y="18.2" class="st0" width="19.7" height="4.7"/>
		</g>
	</g>
	<g>
		<polygon class="st0" points="84,5.1 0.1,4.7 0.1,0 84,0.5 		"/>
	</g>
</g>
</svg>
